<?xml version="1.0" encoding="utf-8"?>
<!-- Generator: Adobe Illustrator 18.1.0, SVG Export Plug-In . SVG Version: 6.00 Build 0)  -->
<!DOCTYPE svg PUBLIC "-//W3C//DTD SVG 1.1//EN" "http://www.w3.org/Graphics/SVG/1.1/DTD/svg11.dtd">
<svg version="1.1" id="Layer_1" xmlns="http://www.w3.org/2000/svg" xmlns:xlink="http://www.w3.org/1999/xlink" x="0px" y="0px"
	 viewBox="0 0 300 50" enable-background="new 0 0 300 50" xml:space="preserve">
<g>
	<path fill="#FFFFFF" d="M12.4,12.1c3.9,0,7,1.2,9.4,3.5c2.4,2.3,3.6,5.4,3.6,9.4c0,3.9-1.2,7-3.6,9.3c-2.4,2.3-5.5,3.5-9.4,3.5H4.1
		V12.1H12.4z M8.8,33.5h3.6c2.4,0,4.4-0.8,5.9-2.4c1.4-1.6,2.1-3.6,2.1-6.1c0-2.6-0.7-4.6-2.1-6.2c-1.5-1.6-3.4-2.4-5.9-2.4H8.8
		V33.5z"/>
	<path fill="#FFFFFF" d="M35.1,12.1h4.7v25.6h-4.7V12.1z"/>
	<path fill="#FFFFFF" d="M50.8,17.8v-2.9H66V9.7l15.3,10.9v2.9l-6.9,11.9l-2.5-6.2H55.5L50.8,17.8z M68.4,15.9l1.6,3.8H53.6l3.1,7.6
		h16.4l1.6,3.8l4.5-7.6L68.4,15.9z"/>
	<path fill="#FFFFFF" d="M97,12.1v10.5l10.1-10.5h6.4l-11.3,11.5l12,14.1h-6l-9.1-10.9L97,29v8.7h-4.7V12.1H97z"/>
	<path fill="#FFFFFF" d="M121.2,37.7l16.5-28.5l16.5,28.5H121.2z M124.5,35.8h26.4L137.7,13L124.5,35.8z"/>
	<path fill="#FFFFFF" d="M187.8,11.6c1.6,0,2.9,0.2,4.1,0.6c1.2,0.4,2.2,0.9,3,1.6c1.7,1.3,2.7,3.2,3.2,5.6l-5,0.9
		c-0.4-1.3-1.1-2.4-2-3.3c-0.9-0.8-2-1.2-3.3-1.2c-1.8,0-3.2,0.8-4.3,2.3c-1.2,1.6-1.8,3.9-1.8,6.8c0,2.9,0.5,5.1,1.6,6.8
		c1.1,1.6,2.5,2.4,4.3,2.4s3.2-0.4,4.1-1.3s1.4-2,1.4-3.4h5c0,2.9-0.9,5.1-2.7,6.7c-1.8,1.6-4.3,2.3-7.5,2.3c-3.4,0-6.1-1.2-8.1-3.6
		c-2-2.4-3-5.7-3-9.9c0-4.2,1-7.5,3.1-9.9C181.9,12.7,184.6,11.6,187.8,11.6z"/>
	<path fill="#FFFFFF" d="M207.3,39.9V7l28.5,16.5L207.3,39.9z"/>
	<path fill="#FFFFFF" d="M252.2,12.1h5.8l8.4,25.6h-4.9l-1.8-5.5h-9.5l-1.8,5.5h-4.9L252.2,12.1z M251.4,28.7h7.2l-3.6-11
		L251.4,28.7z"/>
	<path fill="#FFFFFF" d="M280,12.1l11.3,18.2V12.1h4.7v25.6h-4.7l-11.7-18.8v18.8h-4.7V12.1H280z"/>
</g>
</svg>
