<?xml version="1.0" encoding="utf-8"?>
<!-- Generator: Adobe Illustrator 18.1.0, SVG Export Plug-In . SVG Version: 6.00 Build 0)  -->
<!DOCTYPE svg PUBLIC "-//W3C//DTD SVG 1.1//EN" "http://www.w3.org/Graphics/SVG/1.1/DTD/svg11.dtd">
<svg version="1.1" id="Layer_1" xmlns="http://www.w3.org/2000/svg" xmlns:xlink="http://www.w3.org/1999/xlink" x="0px" y="0px"
	 viewBox="0 0 30 110" enable-background="new 0 0 30 110" xml:space="preserve">
<path fill="#010101" stroke="#FFFFFF" stroke-width="0.5" stroke-miterlimit="10" d="M20.9,26.1c1.2,0.4,1.6,0.9,1.6,2.5v6.2
	c0,3.8,0,5.6-1.8,6.9c0,0,0,0-0.1,0c-0.1,0.1-0.3,0.2-0.5,0.3c-1,0.7-2.5,1.5-5.1,1.5h-1.8h-1.3H9.2V6.3h2.6l3.1,0
	c2.6,0,4.2,0.8,5.1,1.5C20.1,8,20.2,8,20.4,8.2c0,0,0,0,0.2,0.1c1.7,1.4,1.7,3.1,1.7,6.9v7.2v0v0.3c0,0,0,0,0,0.1
	c-0.1,1.7-1.3,2.2-3.2,2.8L20.9,26.1z M13.1,7.4v18.4l2.4-0.5c2.2-0.5,2.7-1.3,2.7-3.1V9.4c-0.4-1.8-1.9-2-3.2-2H13.1z M15.1,42.5
	c1.5,0,3.3-0.2,3.3-3.1V27.2c0-1.4-1-1.4-2.5-0.8l0,0c-1,0.3-2,0.5-2.9,0.7v15.4H15.1z"/>
<path fill="#010101" d="M24.4,56.6c-3.3-8.4-13.1,5.1-17-3.8l-0.1-3.4c4,9,13.8-4.6,17,3.8L24.4,56.6z"/>
<path fill="#010101" stroke="#FFFFFF" stroke-width="0.5" stroke-miterlimit="10" d="M18.5,75.1V69c0-2.6-1.9-3.1-2.6-3.1
	c-0.7,0-2.6,0.5-2.6,3.1v4.7c0,0.3,0.1,0.7,0.3,1.1L22.2,91c0.1,0.3,0.3,0.8,0.3,1.1v6.3c0,0.4-0.2,0.7-0.5,0.9l-1,0.7
	c-2.7,1.9-3.6,2.4-5.1,2.4c-1.4,0-2.4-0.5-5.1-2.4l-1-0.6c-0.3-0.2-0.6-0.7-0.6-1v-7.1c0-0.3,0.2-0.6,0.5-0.7l2.3-0.6l1.2,2.2v6
	c0,2.6,1.9,3.1,2.6,3.1c0.7,0,2.6-0.5,2.6-3.1v-4.8c0-0.3-0.1-0.7-0.3-1.1L9.5,76.1c-0.1-0.3-0.3-0.8-0.3-1.1v-6.3
	c0-0.4,0.2-0.7,0.5-0.9c0.9-0.7,1.8-1.2,2.3-1.5l0.9-0.6c1.2-0.7,2-0.9,2.9-0.9c1.5,0,2.5,0.5,5.3,2.6l0.7,0.5
	c0.3,0.2,0.6,0.7,0.6,1.1v7.1c0,0.3-0.2,0.6-0.5,0.7l-2.3,0.6L18.5,75.1z"/>
</svg>
