<?xml version="1.0" encoding="utf-8"?>
<!-- Generator: Adobe Illustrator 18.1.0, SVG Export Plug-In . SVG Version: 6.00 Build 0)  -->
<!DOCTYPE svg PUBLIC "-//W3C//DTD SVG 1.1//EN" "http://www.w3.org/Graphics/SVG/1.1/DTD/svg11.dtd">
<svg version="1.1" id="Layer_1" xmlns="http://www.w3.org/2000/svg" xmlns:xlink="http://www.w3.org/1999/xlink" x="0px" y="0px"
	 viewBox="0 0 259.3 98" enable-background="new 0 0 259.3 98" xml:space="preserve">
<path fill="#FFFFFF" d="M106.5,92.1l-4.6-4.5L90.2,57.5H87L75,87.6l-4.1,4.5h9.7l-2.9-4.6l2.4-6.1h12l2.5,6.3l-3.1,4.4H106.5z
	 M81.1,78.8l5.1-13l5.1,13H81.1z M129,58.3h-20.1l3.7,4.6v24.7l-3.7,4.5h18.4c0,0,15-1.4,15-16.9C142.3,59.8,129,58.3,129,58.3z
	 M125.1,89.6h-5.9V60.9h5.9c0,0,10.3-0.4,10.3,14.4C135.4,90,125.1,89.6,125.1,89.6z M26.2,68c-0.5-1.2-0.9-2.5-1.6-3.6
	c-0.6-1.1-1.5-2.1-2.4-2.9c-1.2-1-2.7-1.6-4.2-1.6c-2.7-0.1-4.6,1.3-5.2,3.8c-0.6,2.4,0.1,4.2,2.6,5.5c1.7,0.9,3.6,1.6,5.4,2.4
	c1.6,0.7,3.2,1.3,4.6,2.2c3.1,1.9,4.7,4.7,4.3,8.4c-0.3,3.7-2,6.6-5.3,8.1c-5.8,2.6-11.6,2-17.1-1.1c0,0-1.3-0.9-1.8-1.7l0-10.5h1.4
	c0,0,1.2,4.7,2.2,7c1.5,3.6,4.6,5.5,8.6,5.3c2.5-0.1,4.2-1.6,4.9-4c0.7-2.6,0.1-4.6-2.1-6c-1.7-1.1-3.7-1.7-5.6-2.6
	c-2.3-1.2-4.9-2.2-6.8-4c-4-3.7-3.2-10.2,1.3-13c0.2-0.2,0.5-0.3,0.8-0.4c2.6-1.5,5.6-2.1,8.6-2c1.5,0.1,3,0.4,4.4,0.8
	c1.4,0.4,2.6,0.8,3.8,1.7l0,8.2L26.2,68z M46.4,58.6L42.7,63v9.1h14.7v-9.2l-3.5-4.3h14.2l-3.5,4.5v24.7l3.5,4.3H53.9l3.6-4.3V74.5
	H42.7v13.3l3.6,4.3h-14l3.5-4.4V63.2l-3.5-4.6H46.4z M194.6,58.3l-3.4,4.6l7.4,21.4l5.7-15l-2.3-6.3l-4.6-4.7h14.8l-3.4,4.7
	l7.6,21.2l7.6-21.3l-3.6-4.7h10.3l-4.1,4.7l-10.4,29h-4.1l-6.6-18.6l-7,18.6h-4.1L184,63l-4.7-4.7H194.6z M252.3,68
	c-0.5-1.2-0.9-2.5-1.6-3.6c-0.6-1.1-1.4-2.1-2.4-2.9c-1.2-1-2.7-1.6-4.2-1.6c-2.7-0.1-4.6,1.3-5.2,3.8c-0.6,2.4,0.1,4.2,2.6,5.5
	c1.7,0.9,3.6,1.6,5.4,2.4c1.6,0.7,3.2,1.3,4.6,2.2c3.1,1.9,4.7,4.7,4.3,8.4c-0.3,3.7-2,6.6-5.3,8.1c-5.8,2.6-11.6,2-17.1-1.1
	c0,0-1.3-0.9-1.8-1.7l0-10.5h1.4c0,0,1.2,4.7,2.2,7c1.5,3.6,4.6,5.5,8.6,5.3c2.5-0.1,4.2-1.6,4.9-4c0.7-2.6,0.1-4.6-2.1-6
	c-1.7-1.1-3.7-1.7-5.6-2.6c-2.3-1.2-4.9-2.2-6.8-4c-4-3.7-3.2-10.2,1.3-13c0.2-0.2,0.5-0.3,0.8-0.4c2.6-1.5,5.6-2.1,8.6-2
	c1.5,0.1,3,0.4,4.4,0.8c1.3,0.4,2.6,0.8,3.8,1.7l0,8.2L252.3,68z M163.8,57.6c-9.5,0-17.1,7.7-17.1,17.3c0,9.5,7.7,17.3,17.1,17.3
	c9.5,0,17.1-7.7,17.1-17.3C181,65.3,173.3,57.6,163.8,57.6z M163.8,89.8c-5.6,0-10.1-6.7-10.1-15c0-8.3,4.5-15,10.1-15
	c5.6,0,10.1,6.7,10.1,15C174,83.1,169.4,89.8,163.8,89.8z M192.6,6.6c-9.5,0-17.1,7.7-17.1,17.3s7.7,17.3,17.1,17.3
	c9.5,0,17.1-7.7,17.1-17.3S202,6.6,192.6,6.6z M192.6,38.8c-5.6,0-10.1-6.7-10.1-15c0-8.3,4.5-15,10.1-15c5.6,0,10.1,6.7,10.1,15
	C202.7,32.1,198.2,38.8,192.6,38.8z M211.4,7.5H237l0.7,7.7l-4.1-5.2h-11.9v12h9.7l2.5-2.6v8.4l-2.4-3.1h-9.8v12l3.4,4.4h-13.8
	l3.3-4.3V12L211.4,7.5z M45.5,22.6c0,0,5.8-0.7,5.8-7.2c0-0.1,0-0.1,0-0.2c-0.1-2.6-1.5-4.8-3.7-6.1c-1.9-1.2-3.7-1.5-5.9-1.5
	l-18.2,0l3.7,4.3v24.5l-3.7,4.6c3.4,0,6.8,0,10.2,0c1.9,0,3.9,0,5.8,0c2.4,0,5.5,0.1,7.7-1c2-1,3.8-2.5,4.7-4.7
	c0.5-1.1,0.7-2.3,0.7-3.5C52.6,24.4,45.5,22.6,45.5,22.6z M34,10.1h6.5c0,0,3.7,0.7,3.7,5.7S40,21.5,40,21.5h-6V10.1z M40.6,38.7H34
	V23.9l6.5,0c0,0,5,1.3,5,7.5C45.6,37.7,40.6,38.7,40.6,38.7z M73.3,6.6c-9.5,0-17.1,7.7-17.1,17.3s7.7,17.3,17.1,17.3
	c9.5,0,17.1-7.7,17.1-17.3S82.8,6.6,73.3,6.6z M73.3,38.8c-5.6,0-10.1-6.7-10.1-15c0-8.3,4.5-15,10.1-15c5.6,0,10.1,6.7,10.1,15
	C83.5,32.1,78.9,38.8,73.3,38.8z M111.8,6.6c-9.5,0-17.1,7.7-17.1,17.3s7.7,17.3,17.1,17.3c9.5,0,17.1-7.7,17.1-17.3
	S121.3,6.6,111.8,6.6z M111.8,38.8c-5.6,0-10.1-6.7-10.1-15c0-8.3,4.5-15,10.1-15c5.6,0,10.1,6.7,10.1,15
	C121.9,32.1,117.4,38.8,111.8,38.8z M145.3,7.4l-3.7,4.5v9.4l11.5-11.3l-2-2.5h10.3l-5,2.6l-9.8,9.9l3.3-0.1l9.6,16.7l3.3,4.4h-13.1
	l1.9-4.5l-8.2-13.7l-1.9,1.8v12l3.5,4.3h-14.3l3.4-4.3V11.9l-3.4-4.5H145.3z"/>
</svg>
