<?xml version="1.0" encoding="utf-8"?>
<!-- Generator: Adobe Illustrator 18.1.0, SVG Export Plug-In . SVG Version: 6.00 Build 0)  -->
<!DOCTYPE svg PUBLIC "-//W3C//DTD SVG 1.1//EN" "http://www.w3.org/Graphics/SVG/1.1/DTD/svg11.dtd">
<svg version="1.1" id="Layer_1" xmlns="http://www.w3.org/2000/svg" xmlns:xlink="http://www.w3.org/1999/xlink" x="0px" y="0px"
	 viewBox="0 0 300 50" enable-background="new 0 0 300 50" xml:space="preserve">
<g>
	<path fill="#FFFFFF" d="M8.6,12.1h16.2v4H13.3v6.8h10.5v4H13.3v10.9H8.6V12.1z"/>
	<path fill="#FFFFFF" d="M33.3,37.7L49.8,9.2l16.5,28.5H33.3z M36.6,35.8H63L49.8,13L36.6,35.8z"/>
	<path fill="#FFFFFF" d="M81,12.1v16c0,2.1,0.5,3.6,1.6,4.5c1.1,0.9,2.4,1.4,4.1,1.4c1.7,0,3.1-0.5,4.1-1.4c1.1-0.9,1.6-2.4,1.6-4.5
		v-16h4.7v16c0,3.3-0.9,5.8-2.7,7.6c-1.8,1.8-4.4,2.7-7.7,2.7c-3.3,0-5.8-0.9-7.7-2.7c-1.8-1.8-2.7-4.3-2.7-7.6v-16H81z"/>
	<path fill="#FFFFFF" d="M108,12.1h4.7v25.6H108V12.1z"/>
	<path fill="#FFFFFF" d="M151.2,37.1c-3.1,3.1-6.8,4.6-11.2,4.6s-8.1-1.5-11.2-4.6c-3.1-3.1-4.6-6.8-4.6-11.2
		c0-4.4,1.5-8.1,4.6-11.2s6.8-4.6,11.2-4.6c4.4,0,8.1,1.5,11.2,4.6c3.1,3.1,4.6,6.8,4.6,11.2S154.3,34,151.2,37.1z M153.2,24.9
		c-0.3-3.3-1.5-6.1-3.9-8.4c-2.6-2.6-5.7-3.9-9.4-3.9s-6.8,1.3-9.4,3.9c-2.3,2.3-3.6,5.1-3.8,8.4H153.2z M153.2,27.5h-26.3
		c0.4,3,1.6,5.6,3.8,7.8c2.6,2.6,5.7,3.9,9.4,3.9s6.8-1.3,9.4-3.9C151.5,33.1,152.8,30.5,153.2,27.5z"/>
	<path fill="#FFFFFF" d="M174,12.1l7,15.2l7-15.2h6.4v25.6h-4.7V18.3l-7.3,16.7h-3L172,17.7v20h-4.7V12.1H174z"/>
	<path fill="#FFFFFF" d="M238.4,25c-1,1.8-2.2,3.3-3.6,4.6c-3.5,3.1-7.8,4.6-12.9,4.6s-9.4-1.5-12.9-4.6c-1.4-1.3-2.7-2.8-3.7-4.6
		c1-1.8,2.2-3.3,3.7-4.6c3.5-3.1,7.8-4.6,12.9-4.6s9.4,1.5,12.9,4.6C236.2,21.7,237.4,23.2,238.4,25z M228,25c0-1.6-0.6-3.1-1.8-4.2
		c-1.2-1.2-2.6-1.8-4.3-1.8c-0.9,0-1.7,0.2-2.5,0.5l-0.6-1.4c-4.7,0.8-8.1,3.1-10.2,6.9c0.6,1.1,1.4,2.1,2.3,2.9
		c2.1,2.1,4.8,3.4,7.9,3.9c-1.4-0.6-2.4-1.5-3.3-2.8s-1.2-2.6-1.2-4.1c0-0.9,0.2-1.8,0.5-2.7l1.5,0.5c-0.3,0.7-0.4,1.4-0.4,2.2
		c0,1.7,0.6,3.1,1.8,4.2s2.6,1.7,4.3,1.7c1.7,0,3.1-0.6,4.3-1.7C227.4,28,228,26.6,228,25z M226.5,25c0,1.2-0.5,2.3-1.4,3.2
		c-0.9,0.9-2,1.3-3.3,1.3c-1.3,0-2.4-0.4-3.3-1.3c-0.9-0.9-1.3-2-1.3-3.2c0-0.6,0.1-1.1,0.3-1.6l4.7,2.1l-2.2-4.7
		c0.6-0.3,1.2-0.4,1.8-0.4c1.3,0,2.4,0.4,3.3,1.3S226.5,23.7,226.5,25z M235.3,25c-0.6-1.1-1.4-2.1-2.3-3c-2.2-2.1-4.8-3.4-8-3.9
		c1.4,0.6,2.5,1.5,3.3,2.7c0.8,1.3,1.3,2.6,1.3,4.2c0,1.5-0.4,2.9-1.2,4.1c-0.8,1.2-1.9,2.2-3.3,2.8C229.7,31,233.1,28.8,235.3,25z"
		/>
	<path fill="#FFFFFF" d="M253.9,33.7h10.5v4.1h-15.2V12.1h4.7V33.7z"/>
	<path fill="#FFFFFF" d="M277.4,12.1v10.5l10.1-10.5h6.4l-11.3,11.5l12,14.1h-6l-9.1-10.9l-2.1,2.1v8.7h-4.7V12.1H277.4z"/>
</g>
</svg>
