<?xml version="1.0" encoding="utf-8"?>
<!-- Generator: Adobe Illustrator 18.1.0, SVG Export Plug-In . SVG Version: 6.00 Build 0)  -->
<!DOCTYPE svg PUBLIC "-//W3C//DTD SVG 1.1//EN" "http://www.w3.org/Graphics/SVG/1.1/DTD/svg11.dtd">
<svg version="1.1" id="Layer_1" xmlns="http://www.w3.org/2000/svg" xmlns:xlink="http://www.w3.org/1999/xlink" x="0px" y="0px"
	 viewBox="0 0 410 50" enable-background="new 0 0 410 50" xml:space="preserve">
<g>
	<path fill="#FFFFFF" d="M24.9,20c0,1.8-0.5,3.4-1.5,4.7c-1,1.3-2.5,2.2-4.4,2.7l6.9,10.4h-6.1l-5.6-10h-3.6v10H5.9V12.1h9.5
		c3,0,5.4,0.7,7.1,2.2C24.1,15.7,24.9,17.6,24.9,20z M15,24.6c1.7,0,3-0.4,3.9-1.2c0.9-0.8,1.3-1.8,1.3-3.1c0-1.3-0.4-2.3-1.2-3.1
		c-0.8-0.8-2-1.2-3.6-1.2h-4.8v8.5H15z"/>
	<path fill="#FFFFFF" d="M62.5,37.1c-3.1,3.1-6.8,4.6-11.2,4.6s-8.1-1.5-11.2-4.6c-3.1-3.1-4.6-6.8-4.6-11.2c0-4.4,1.5-8.1,4.6-11.2
		c3.1-3.1,6.8-4.6,11.2-4.6c4.4,0,8.1,1.5,11.2,4.6c3.1,3.1,4.6,6.8,4.6,11.2S65.6,34,62.5,37.1z M64.6,24.9
		c-0.3-3.3-1.5-6.1-3.9-8.4c-2.6-2.6-5.7-3.9-9.4-3.9S44.6,14,42,16.5c-2.3,2.3-3.6,5.1-3.8,8.4H64.6z M64.5,27.5H38.2
		c0.4,3,1.6,5.6,3.8,7.8c2.6,2.6,5.7,3.9,9.4,3.9s6.8-1.3,9.4-3.9C62.9,33.1,64.2,30.5,64.5,27.5z"/>
	<path fill="#FFFFFF" d="M100.7,37.7h-5.8l-6.8-9.1l-6,9.1h-5.7l9-12.8l-9.1-12.9h5.7l6.5,9.2l5.6-9.2h5.6l-8.6,12.8L100.7,37.7z"/>
	<path fill="#FFFFFF" d="M109.7,12.1h4.7v25.6h-4.7V12.1z"/>
	<path fill="#FFFFFF" d="M158.3,25c-1,1.8-2.2,3.3-3.6,4.6c-3.5,3.1-7.8,4.6-12.9,4.6s-9.4-1.5-12.9-4.6c-1.4-1.3-2.7-2.8-3.7-4.6
		c1-1.8,2.2-3.3,3.7-4.6c3.5-3.1,7.8-4.6,12.9-4.6s9.4,1.5,12.9,4.6C156.1,21.7,157.3,23.2,158.3,25z M147.8,25
		c0-1.6-0.6-3.1-1.8-4.2c-1.2-1.2-2.6-1.8-4.3-1.8c-0.9,0-1.7,0.2-2.5,0.5l-0.6-1.4c-4.7,0.8-8.1,3.1-10.2,6.9
		c0.6,1.1,1.4,2.1,2.3,2.9c2.1,2.1,4.8,3.4,7.9,3.9c-1.3-0.6-2.4-1.5-3.3-2.8c-0.8-1.2-1.2-2.6-1.2-4.1c0-0.9,0.2-1.8,0.5-2.7
		l1.5,0.5c-0.3,0.7-0.4,1.4-0.4,2.2c0,1.7,0.6,3.1,1.8,4.2s2.6,1.7,4.3,1.7s3.1-0.6,4.3-1.7C147.2,28,147.8,26.6,147.8,25z
		 M146.3,25c0,1.2-0.5,2.3-1.4,3.2c-0.9,0.9-2,1.3-3.3,1.3c-1.3,0-2.4-0.4-3.3-1.3c-0.9-0.9-1.3-2-1.3-3.2c0-0.6,0.1-1.1,0.3-1.6
		l4.7,2.1l-2.2-4.7c0.6-0.3,1.2-0.4,1.8-0.4c1.3,0,2.4,0.4,3.3,1.3S146.3,23.7,146.3,25z M155.1,25c-0.6-1.1-1.4-2.1-2.3-3
		c-2.2-2.1-4.8-3.4-8-3.9c1.4,0.6,2.5,1.5,3.3,2.7c0.8,1.3,1.3,2.6,1.3,4.2c0,1.5-0.4,2.9-1.2,4.1c-0.8,1.2-1.9,2.2-3.3,2.8
		C149.6,31,153,28.8,155.1,25z"/>
	<path fill="#FFFFFF" d="M198.7,14.2c1.6,1.4,2.4,3.4,2.4,6c0,2.6-0.8,4.6-2.4,6s-3.9,2.1-6.8,2.1h-4.3v9.3h-4.7V12.1h9
		C194.9,12.1,197.1,12.8,198.7,14.2z M192,24.3c1.4,0,2.5-0.4,3.3-1.1c0.7-0.8,1.1-1.7,1.1-2.9c0-1.2-0.4-2.2-1.1-3
		c-0.7-0.8-1.8-1.2-3.3-1.2h-4.3v8.2H192z"/>
	<path fill="#FFFFFF" d="M209.9,12.1h16.5v4h-11.8v6.8h11.1v4h-11.1v6.8h11.8v4.1h-16.5V12.1z"/>
	<path fill="#FFFFFF" d="M236.2,37.7l16.5-28.5l16.5,28.5H236.2z M239.5,35.8h26.4L252.7,13L239.5,35.8z"/>
	<path fill="#FFFFFF" d="M284.3,12.1v10.5l10.1-10.5h6.4l-11.3,11.5l12,14.1h-6l-9.1-10.9l-2.1,2.1v8.7h-4.7V12.1H284.3z"/>
	<path fill="#FFFFFF" d="M340.3,31.6h-7.4v9.9h-22.2V24.2h7.4v-9.9h22.2V31.6z M330.4,39v-9.9h-17.3V39H330.4z M337.8,29.1v-9.9
		h-17.3v4.9h12.3v4.9H337.8z"/>
	<path fill="#FFFFFF" d="M357.9,12.1l11.3,18.2V12.1h4.7v25.6h-4.7l-11.7-18.8v18.8h-4.7V12.1H357.9z"/>
	<path fill="#FFFFFF" d="M398.6,19.2c-0.4-2.2-2-3.4-4.7-3.4c-1.3,0-2.4,0.3-3.1,0.8c-0.8,0.5-1.1,1.2-1.1,2c0,0.8,0.2,1.4,0.7,1.8
		c0.5,0.4,1.2,0.8,2.3,1.2l5.6,2.2c1.9,0.7,3.4,1.7,4.4,2.8c1,1.1,1.5,2.5,1.5,4.2c0,2.3-0.9,4.2-2.6,5.5c-1.7,1.4-4.2,2-7.4,2
		c-2.8,0-5.1-0.7-6.9-2.1c-2-1.5-3-3.7-3.1-6.5h4.6c0,2.1,1.1,3.4,3.3,4c0.7,0.2,1.5,0.3,2.6,0.3s2.1-0.3,3-0.8
		c0.9-0.5,1.4-1.3,1.4-2.2c0-0.9-0.2-1.6-0.8-2.1c-0.5-0.5-1.3-0.9-2.4-1.4l-5.1-2c-2-0.8-3.5-1.7-4.5-2.7c-1.1-1-1.6-2.4-1.6-4.3
		c0-2.1,0.8-3.8,2.5-5.1c1.7-1.3,4-1.9,6.9-1.9c2.9,0,5.1,0.7,6.7,2c1.6,1.3,2.5,3.2,2.7,5.6H398.6z"/>
</g>
</svg>
