<?xml version="1.0" encoding="utf-8"?>
<!-- Generator: Adobe Illustrator 18.1.0, SVG Export Plug-In . SVG Version: 6.00 Build 0)  -->
<!DOCTYPE svg PUBLIC "-//W3C//DTD SVG 1.1//EN" "http://www.w3.org/Graphics/SVG/1.1/DTD/svg11.dtd">
<svg version="1.1" id="Layer_1" xmlns="http://www.w3.org/2000/svg" xmlns:xlink="http://www.w3.org/1999/xlink" x="0px" y="0px"
	 viewBox="0 0 400 400" enable-background="new 0 0 400 400" xml:space="preserve">
<g>
	<g>
		<path fill="#010101" stroke="#FFFFFF" stroke-width="0.5" stroke-miterlimit="10" d="M52.9,175.5v-16.2c0-6.9-5.1-8.1-7-8.1
			c-2,0-7,1.2-7,8.1V172c0,0.9,0.4,2,0.7,2.8l23.2,43.1c0.4,0.9,0.7,2.1,0.7,3v16.8c0,1.1-0.5,1.9-1.4,2.5l-2.7,1.9
			c-7.2,4.9-9.6,6.3-13.6,6.3c-3.8,0-6.3-1.4-13.5-6.3l-2.7-1.7c-0.9-0.6-1.5-1.8-1.5-2.7v-18.9c0-0.9,0.6-1.6,1.2-2l6.2-1.6
			l3.2,5.9v16c0,7,5.1,8.3,7,8.3c2,0,7-1.2,7-8.1v-12.8c0-0.9-0.4-2-0.7-2.8l-23.2-43.1c-0.4-0.9-0.7-2.1-0.7-3v-16.8
			c0-1.1,0.5-1.9,1.4-2.5c2.5-1.8,4.7-3.1,6.2-4.1l2.3-1.5c3.1-2,5.2-2.3,7.8-2.3c4,0,6.7,1.2,14.2,6.8l2,1.2
			c0.9,0.6,1.5,1.9,1.5,2.8v18.8c0,0.9-0.6,1.6-1.2,2l-6.2,1.6L52.9,175.5z"/>
		<path fill="#010101" stroke="#FFFFFF" stroke-width="0.5" stroke-miterlimit="10" d="M86.4,170.7v48.2l14.1,3.6v-54.7l10.6,3.4
			v95.2l-1.7-0.4l-2.3-0.6l-1.7-0.4l-3.1-0.9c-1-0.4-1.7-1.2-1.7-2.1v-36.2l-14.1-3.5v43.9l-1.7-0.4l-2.3-0.6l-1.7-0.4l-3.1-0.9
			c-0.9-0.4-1.7-1.2-1.7-2.1v-94.3L86.4,170.7z"/>
		<path fill="#010101" stroke="#FFFFFF" stroke-width="0.5" stroke-miterlimit="10" d="M131.3,281.8h-10.7l13.2-82.7l2.6-16.5h0.2
			l1.5,0.4l1.7,0.4l3.1,0.9l3.2,0.7c0.7,0.4,1.2,0.7,1.5,1.4l0.2,1.4l14.4,94.2h-3.7l-4.2-26.5l-18.1-4.6L131.3,281.8z M153.8,251.6
			l-8.8-58.9l-8.1,54.6L153.8,251.6z"/>
		<path fill="#010101" stroke="#FFFFFF" stroke-width="0.5" stroke-miterlimit="10" d="M208.5,259.1v15.8c0,10,0,14.7-4.8,18.3
			c-0.1,0-0.1,0.1-0.3,0.1c-0.4,0.4-0.9,0.5-1.4,0.9c-2.6,1.9-6.5,3.9-13.5,3.9h-4.8h-3.5h-7v-98.6h10.5v0.1h4.8
			c6.9,0,10.9,2.1,13.5,4c0.5,0.4,1,0.5,1.4,0.9c0.1,0.1,0.1,0.1,0.3,0.1c4.8,3.6,4.8,8.3,4.8,18.3V259.1z M189.1,295.2
			c4.1,0,8.8-0.6,8.8-8.1v-35.7v-40.6c0-7.5-4.7-8.1-8.8-8.1h-5.3v92.6H189.1z"/>
		<path fill="#010101" stroke="#FFFFFF" stroke-width="0.5" stroke-miterlimit="10" d="M254.3,226.1c0.9,0.6,1.4,1.5,1.4,2.7v66.3
			v6.4v6.3c0,1.2-0.5,2.1-1.4,2.7l-2.7,1.9c-2,1.4-3.6,2.3-4.9,3.2c0,0.1,0,0.1-0.1,0.1c-3.3,2-5.3,2.5-8.1,2.5
			c-2.8,0-4.8-0.5-8.1-2.5v-0.1h-0.1c-1.4-0.9-3-1.9-4.8-3.2l-2.7-1.9c-1-0.6-1.5-1.5-1.5-2.7v-79c0-1.2,0.5-2.1,1.5-2.7l2-1.4
			c7.3-4.9,10-6.3,13.8-6.3c4.1,0,6.3,1.4,13.8,6.3L254.3,226.1z M245.2,308.3v-9.1v-4v-66.9c0-5.9-4.2-7-6.8-7
			c-2.6,0-6.8,1.1-6.8,7v80c0,5.9,4.2,6.9,6.8,6.9C241,315.2,245.2,314.3,245.2,308.3z"/>
		<path fill="#010101" stroke="#FFFFFF" stroke-width="0.5" stroke-miterlimit="10" d="M331.2,240.5l-14.1,94.3l-0.2,1.4
			c-0.3,0.9-0.7,1.2-1.5,1.4l-3.1,0.9l-1.7,0.4l-1.5,0.4h-0.2l-2.3-14.8l-7.8-50.6l-9.1,61.1l-0.1,1.4c-0.4,0.9-1,1.2-1.6,1.4
			l-3.1,0.9l-1.7,0.4l-1.5,0.4h-0.2l-2.2-14.8l-13-83.8h10.5l2.5,15.8l9.4,62.3l1.1-7.4l7.3-49.1l-3.3-21.6h6.5h3.6h0.5l2.3,15.8
			l9.5,62.3l1.1-7.4l10.5-70.7H331.2z"/>
		<path fill="#010101" stroke="#FFFFFF" stroke-width="0.5" stroke-miterlimit="10" d="M361.2,284.8v-16.2c0-6.9-5.1-8.1-7-8.1
			c-2,0-7,1.2-7,8.1v12.6c0,0.9,0.4,2,0.7,2.8l23.2,43.1c0.4,0.9,0.7,2.1,0.7,3v16.8c0,1.1-0.5,1.8-1.4,2.5l-2.7,1.9
			c-7.2,4.9-9.6,6.3-13.6,6.3c-3.8,0-6.3-1.4-13.5-6.3l-2.7-1.7c-0.9-0.6-1.5-1.9-1.5-2.7v-18.9c0-0.9,0.6-1.6,1.2-2l6.2-1.6
			l3.2,5.9v16c0,7,5.1,8.3,7,8.3c2,0,7-1.2,7-8.1v-12.8c0-0.9-0.4-2-0.7-2.8l-23.2-43.1c-0.4-0.9-0.7-2.1-0.7-3v-16.8
			c0-1.1,0.5-1.9,1.4-2.5c2.5-1.8,4.7-3.1,6.2-4.1l2.3-1.5c3.1-2,5.2-2.3,7.8-2.3c4,0,6.7,1.2,14.2,6.8l2,1.2
			c0.9,0.6,1.5,1.8,1.5,2.8v18.8c0,0.9-0.6,1.6-1.2,2l-6.2,1.6L361.2,284.8z"/>
	</g>
	<g>
		<g>
			<path fill="#010101" d="M320.8,136.9c0,27.1,0,28.3,0,29.5c0,2.7-0.1,5-0.8,6.4c-1.7,3.3-5.2,5-9.8,5c-4.5,0-8.1-1.7-9.7-5
				c-0.7-1.5-0.8-3.8-0.8-6.4c0-1.2,0-2.5,0-29.5c0-4.3,0.1-11.5,0.8-13.8c1.3-4.3,4.8-7.1,9.8-7.1c4.8,0,8.5,2.8,9.7,7.1
				C320.7,125.4,320.8,132.6,320.8,136.9z M305.6,167.8c0,4.2,0.5,7.2,4.6,7.2h0.1c4.6,0,4.5-3,4.5-11.8c0-34.6,0-35.8,0-36.9
				c0-4.3-0.4-7.3-4.5-7.3h-0.1c-4.1,0-4.5,2.9-4.5,7.1C305.7,139.7,305.6,153.5,305.6,167.8z"/>
			<path fill="#010101" d="M344.2,124.4v3.1c-0.5,0-9,0-10,0v23.2h9.3v3.1h-9.3c0.2,11,0.1,20.9,0.1,30.8H328l-0.1-60.1H344.2z"/>
		</g>
		<g>
			<g>
				<path fill="#010101" stroke="#FFFFFF" stroke-width="0.5" stroke-miterlimit="10" d="M129.2,94.7c3.1,1.1,4.2,2.4,4.2,6.7v16.5
					c0,10.1,0,14.8-4.8,18.4c-0.1,0-0.1,0.1-0.2,0.1c-0.4,0.4-0.9,0.5-1.4,0.9c-2.6,1.9-6.6,4-13.5,4h-4.8h-3.5H98V42.1h6.8l8.3,0.1
					c7,0,11.1,2.2,13.7,4.1c0.4,0.4,0.6,0.4,1,0.7c0,0,0.1,0.1,0.5,0.2c4.6,3.6,4.5,8.2,4.5,18.4v19.1v0.1v0.7
					c0,0.1-0.1,0.1-0.1,0.2c-0.4,4.6-3.5,6-8.4,7.3L129.2,94.7z M108.6,45.1V94l6.5-1.4c5.8-1.4,7.1-3.4,7.1-8.3V50.4
					c-1.1-4.8-5-5.2-8.4-5.3H108.6z M113.9,138.3c4.1,0,8.8-0.6,8.8-8.2V97.7c0-3.9-2.6-3.6-6.6-2.2l0.1-0.1c-2.6,0.9-5.3,1.4-7.7,2
					v41H113.9z"/>
				<path fill="#010101" stroke="#FFFFFF" stroke-width="0.5" stroke-miterlimit="10" d="M179.2,64.2c0.9,0.6,1.4,1.5,1.4,2.7v66.7
					v6.5v6.3c0,1.2-0.5,2.1-1.4,2.7l-2.7,1.9c-2,1.4-3.6,2.4-5,3.2c0,0.1,0,0.1-0.1,0.1c-3.3,2-5.3,2.5-8.2,2.5
					c-2.9,0-4.8-0.5-8.2-2.5v-0.1h-0.1c-1.4-0.9-3-1.9-4.8-3.2l-2.7-1.9c-1-0.6-1.5-1.5-1.5-2.7V67c0-1.2,0.5-2.1,1.5-2.7l2-1.4
					c7.3-5,10.1-6.3,13.9-6.3c4.1,0,6.3,1.4,13.9,6.3L179.2,64.2z M170,146.9v-9.2v-4V66.5c0-6-4.2-7.1-6.8-7.1
					c-2.6,0-6.8,1.1-6.8,7.1v80.5c0,6,4.2,7,6.8,7C165.8,153.9,170,152.9,170,146.9z"/>
				<path fill="#010101" stroke="#FFFFFF" stroke-width="0.5" stroke-miterlimit="10" d="M226.6,81c0.9,0.6,1.4,1.5,1.4,2.7v66.7
					v6.5v6.3c0,1.2-0.5,2.1-1.4,2.7l-2.7,1.9c-2,1.4-3.6,2.4-5,3.2c0,0.1,0,0.1-0.1,0.1c-3.4,2-5.3,2.5-8.2,2.5
					c-2.9,0-4.8-0.5-8.2-2.5V171h-0.1c-1.4-0.9-3-1.9-4.8-3.2l-2.7-1.9c-1-0.6-1.5-1.5-1.5-2.7V83.7c0-1.2,0.5-2.1,1.5-2.7l2-1.4
					c7.3-5,10.1-6.3,13.9-6.3c4.1,0,6.3,1.4,13.9,6.3L226.6,81z M217.4,163.7v-9.2v-4V83.2c0-6-4.2-7.1-6.8-7.1s-6.8,1.1-6.8,7.1
					v80.5c0,6,4.2,7,6.8,7S217.4,169.6,217.4,163.7z"/>
				<path fill="#010101" stroke="#FFFFFF" stroke-width="0.5" stroke-miterlimit="10" d="M278.1,183.5c0.9,3.4,1.5,5,2.6,5.6
					l-9.6,2.2c-1.4,0.4-2.1-0.7-2.5-2.6l-1.5-6c-1.4-5.3-4.1-15.8-9.3-35.3c-1-3.1-1.4-6.6-4.8-6.6c-0.6,0.1-1.2,0.4-1.9,0.4v45.3
					c-0.5,1-1.2,1.9-2.2,2.2l-3.1,0.7l-1.7,0.5l-2.4,0.6l-1.7,0.4V91.9h11.2v45.9c1.6-0.4,3.6-1.4,5.5-5.5l6-10.4l0.9-1.6
					c1.4-2.4,2.1-6.1,2.1-8.9V95.6v-0.1c0-1.1,0.6-1.7,1.7-2.1l3.1-0.9l1.7-0.4l2.4-0.6l1.7-0.4v6.5v0.1c0,4.8-0.6,7.3-3.9,13.2
					l-3.5,6.3l-9.2,16.9c2.9,0.4,5.5,2.4,7.3,8.3c4.3,15.5,6.8,25.7,8.7,32.2L278.1,183.5z"/>
			</g>
		</g>
	</g>
	<path fill="#010101" d="M344.1,212.2c-8.7-22.3-34.7,13.6-45.3-10.2l-0.2-9c10.6,23.8,36.6-12.1,45.3,10.2L344.1,212.2z"/>
	<path fill="#010101" d="M344.1,212.2c-8.7-22.3-34.7,13.6-45.3-10.2l-0.2-9c10.6,23.8,36.6-12.1,45.3,10.2L344.1,212.2z"/>
</g>
</svg>
