<?xml version="1.0" encoding="utf-8"?>
<!-- Generator: Adobe Illustrator 18.1.0, SVG Export Plug-In . SVG Version: 6.00 Build 0)  -->
<!DOCTYPE svg PUBLIC "-//W3C//DTD SVG 1.1 Tiny//EN" "http://www.w3.org/Graphics/SVG/1.1/DTD/svg11-tiny.dtd">
<svg version="1.1" baseProfile="tiny" id="Layer_1" xmlns="http://www.w3.org/2000/svg" xmlns:xlink="http://www.w3.org/1999/xlink"
	 x="0px" y="0px" viewBox="0 0 200 200" xml:space="preserve">
<path fill="#FFFFFF" stroke="#FFFFFF" stroke-width="0.5" stroke-miterlimit="10" d="M110.7,47.5c2.2,0.7,2.9,1.6,2.9,4.5v11.3
	c0,6.9,0,10.2-3.3,12.5c0,0,0,0-0.2,0c-0.2,0.2-0.5,0.4-0.9,0.5c-1.8,1.3-4.5,2.7-9.3,2.7h-3.3h-2.4h-4.9V11.5h4.7h5.6
	c4.7,0,7.6,1.5,9.3,2.7c0.2,0.4,0.4,0.4,0.7,0.7c0,0,0,0,0.4,0.2c3.1,2.5,3.1,5.6,3.1,12.5v13.1l0,0v0.5c0,0,0,0,0,0.2
	c-0.2,3.1-2.4,4-5.8,5.1L110.7,47.5z M96.5,13.5v33.5l4.4-0.9c4-0.9,4.9-2.4,4.9-5.6V17.1c-0.7-3.3-3.5-3.6-5.8-3.6
	C100,13.5,96.5,13.5,96.5,13.5z M100.2,77.3c2.7,0,6-0.4,6-5.6V49.5c0-2.5-1.8-2.5-4.5-1.5l0,0c-1.8,0.5-3.6,0.9-5.3,1.3v28H100.2z"
	/>
<path fill="#FFFFFF" d="M117.1,102.9c-6-15.3-23.8,9.3-30.9-6.9L86,89.8c7.3,16.4,25.1-8.4,30.9,6.9L117.1,102.9z"/>
<path fill="#FFFFFF" stroke="#FFFFFF" stroke-width="0.5" stroke-miterlimit="10" d="M106.4,136.5v-11.1c0-4.7-3.5-5.6-4.7-5.6
	c-1.3,0-4.7,0.9-4.7,5.6v8.5c0,0.5,0.2,1.3,0.5,2l15.6,29.5c0.2,0.5,0.5,1.5,0.5,2v11.5c0,0.7-0.4,1.3-0.9,1.6l-1.8,1.3
	c-4.9,3.5-6.5,4.4-9.3,4.4c-2.5,0-4.4-0.9-9.3-4.4l-1.8-1.1c-0.5-0.4-1.1-1.3-1.1-1.8V166c0-0.5,0.4-1.1,0.9-1.3l4.2-1.1l2.2,4v10.9
	c0,4.7,3.5,5.6,4.7,5.6s4.7-0.9,4.7-5.6v-8.7c0-0.5-0.2-1.3-0.5-2L90,138.4c-0.2-0.5-0.5-1.5-0.5-2v-11.5c0-0.7,0.4-1.3,0.9-1.6
	c1.6-1.3,3.3-2.2,4.2-2.7l1.6-1.1c2.2-1.3,3.6-1.6,5.3-1.6c2.7,0,4.5,0.9,9.6,4.7l1.3,0.9c0.5,0.4,1.1,1.3,1.1,2v12.9
	c0,0.5-0.4,1.1-0.9,1.3l-4.2,1.1L106.4,136.5z"/>
</svg>
